PathFileType	4	(X/Y/Z)
DataRate	CameraRate	NumFrames	NumMarkers	Units	OrigDataRate	OrigDataStartFrame	OrigNumFrames	
	120.0	120.0	4	39	mm	120.0	87	231
Frame#	Time	midhip	hip_r	hip_l	knee_r	knee_l	ankle_r	ankle_l	midasis	asis_r	asis_l	psis_r	psis_l	epicondLat_r	epicondLat_l	epicondMed_r	epicondMed_l	malleolusLat_r	malleolusLat_l	malleolusMedv_r	malleolusMedv_l	heel_r	heel_l	sternalnotch	xyphoidprocess	neck	subclavicle_r	subclavicle_l	toe_r	toe_l	thighwand_r	thighwand_l	upperleg1_r	upperleg1_l	upperleg2_r	upperleg2_l	shankwand_r	shankwand_l	lowerleg1_r	lowerleg1_l
	X1	Y1	Z1	X2	Y2	Z2	X3	Y3	Z3	X4	Y4	Z4	X5	Y5	Z5	X6	Y6	Z6	X7	Y7	Z7	X8	Y8	Z8	X9	Y9	Z9	X10	Y10	Z10	X11	Y11	Z11	X12	Y12	Z12	X13	Y13	Z13	X14	Y14	Z14	X15	Y15	Z15	X16	Y16	Z16	X17	Y17	Z17	X18	Y18	Z18	X19	Y19	Z19	X20	Y20	Z20	X21	Y21	Z21	X22	Y22	Z22	X23	Y23	Z23	X24	Y24	Z24	X25	Y25	Z25	X26	Y26	Z26	X27	Y27	Z27	X28	Y28	Z28	X29	Y29	Z29	X30	Y30	Z30	X31	Y31	Z31	X32	Y32	Z32	X33	Y33	Z33	X34	Y34	Z34	X35	Y35	Z35	X36	Y36	Z36	X37	Y37	Z37	X38	Y38	Z38	X39	Y39	Z39

	87	0.72500	1411.356	635.194	-341.194	1426.589	641.098	-286.798	1422.719	644.068	-404.142	1407.175	341.403	-264.741	1419.371	342.011	-414.242	1384.411	54.630	-243.957	1403.013	55.673	-430.939	1489.281	682.856	-346.582	1492.159	680.648	-259.334	1486.404	685.064	-433.830	1369.470	752.738	-299.147	1366.262	752.257	-384.263	1407.588	344.753	-218.865	1410.888	343.684	-461.457	1398.025	340.480	-315.173	1425.010	337.502	-370.569	1378.899	57.454	-211.035	1389.243	58.170	-460.272	1392.755	53.793	-270.449	1412.371	52.756	-399.307	1346.376	38.551	-258.835	1352.028	38.239	-420.699	1450.866	1017.681	-332.979	1541.393	908.188	-333.797	1373.252	1035.466	-340.510	1468.690	1012.000	-296.106	1470.445	1009.953	-384.272	1475.657	41.208	-228.151	1488.561	38.945	-458.880	1529.604	426.373	-300.183	1467.085	422.151	-517.444	1458.900	482.427	-249.388	1465.211	482.014	-434.852	1443.811	395.105	-246.416	1469.839	398.764	-420.876	1408.512	146.473	-148.323	1504.447	160.931	-414.842	1399.859	201.011	-213.761	1440.798	218.507	-425.364
	88	0.73333	1411.765	635.140	-341.139	1427.081	641.037	-286.848	1423.093	643.982	-404.189	1407.335	341.328	-264.726	1419.343	342.024	-414.217	1384.422	54.600	-243.972	1403.046	55.665	-430.945	1489.723	682.766	-346.704	1492.687	680.576	-259.491	1486.760	684.955	-433.918	1369.908	752.734	-299.005	1366.541	752.262	-384.107	1407.800	344.683	-218.851	1410.808	343.698	-461.422	1399.075	339.324	-315.183	1424.869	337.393	-370.614	1378.946	57.421	-211.043	1389.244	58.163	-460.262	1392.813	53.658	-270.478	1412.425	52.721	-399.322	1346.385	38.551	-258.830	1352.037	38.243	-420.685	1451.102	1017.564	-332.898	1541.449	907.921	-333.715	1373.464	1035.496	-340.368	1468.902	1011.841	-296.040	1470.689	1009.822	-384.165	1475.681	41.173	-228.167	1488.568	38.916	-458.922	1529.929	426.157	-300.337	1466.912	422.036	-517.469	1458.295	481.959	-249.894	1465.238	481.891	-434.882	1444.132	394.962	-246.558	1469.743	398.577	-420.942	1408.664	146.410	-148.331	1504.451	160.957	-414.878	1399.951	200.809	-213.808	1440.745	218.460	-425.372
	89	0.74167	1412.188	635.082	-341.086	1427.581	640.972	-286.896	1423.476	643.897	-404.233	1407.518	341.254	-264.725	1419.285	342.037	-414.186	1384.439	54.567	-243.990	1403.075	55.658	-430.949	1490.176	682.672	-346.823	1493.225	680.499	-259.642	1487.126	684.845	-434.004	1370.350	752.729	-298.875	1366.847	752.270	-383.943	1408.031	344.613	-218.851	1410.704	343.713	-461.383	1399.237	339.323	-315.191	1424.754	337.325	-370.537	1378.999	57.387	-211.056	1389.244	58.156	-460.253	1392.841	53.473	-270.535	1412.471	52.685	-399.341	1346.396	38.557	-258.829	1352.046	38.247	-420.665	1451.319	1017.463	-332.791	1541.526	907.705	-333.585	1373.628	1035.518	-340.258	1469.087	1011.704	-295.953	1470.930	1009.714	-384.016	1475.709	41.143	-228.183	1488.576	38.890	-458.962	1530.212	425.931	-300.541	1466.728	421.902	-517.476	1458.816	481.908	-250.004	1465.272	481.747	-434.901	1444.499	394.835	-246.641	1469.659	398.413	-420.943	1408.823	146.345	-148.344	1504.444	160.985	-414.901	1399.966	200.497	-213.844	1440.660	218.425	-425.329
	90	0.75000	1412.627	635.027	-341.031	1428.079	640.917	-286.931	1423.872	643.821	-404.264	1407.720	341.194	-264.731	1419.195	342.055	-414.146	1384.458	54.541	-244.006	1403.092	55.660	-430.946	1490.635	682.584	-346.920	1493.760	680.428	-259.761	1487.510	684.741	-434.080	1370.812	752.721	-298.748	1367.188	752.284	-383.776	1408.276	344.553	-218.858	1410.579	343.734	-461.336	1398.250	340.586	-315.062	1424.608	337.278	-370.430	1379.048	57.361	-211.067	1389.239	58.158	-460.240	1392.845	53.361	-270.585	1412.501	52.663	-399.355	1346.406	38.570	-258.832	1352.054	38.255	-420.643	1451.514	1017.392	-332.691	1541.608	907.541	-333.481	1373.760	1035.549	-340.177	1469.275	1011.613	-295.882	1471.121	1009.625	-383.885	1475.738	41.124	-228.194	1488.580	38.870	-458.996	1530.224	425.651	-300.845	1466.558	421.766	-517.463	1460.689	482.481	-249.965	1465.304	481.607	-434.894	1444.845	394.698	-246.700	1469.562	398.267	-420.910	1408.982	146.288	-148.359	1504.424	161.024	-414.911	1400.080	200.294	-213.839	1440.542	218.400	-425.283
